# Blender v2.78 (sub 0) OBJ File: 'syringe.blend'
# www.blender.org
mtllib syringe.mtl
o Cylinder_Cylinder.001
v -5.423483 -0.000000 -0.016449
v -3.197172 0.000000 -0.016449
v -5.282750 -0.014245 0.008224
v -3.197172 -0.014245 0.008224
v -5.282750 0.014245 0.008224
v -3.197172 0.014245 0.008224
v 0.234408 -0.171580 0.015527
v 0.234408 0.171580 0.015527
v 0.234408 -0.171580 -0.015527
v 0.234408 0.171580 -0.015527
v 5.997365 -0.119582 0.010821
v 5.997365 -0.119582 -0.010821
v 0.234408 -0.015527 -0.171580
v 0.234408 -0.015527 0.171580
v 0.234408 0.015527 -0.171580
v 0.234408 0.015527 0.171580
v 5.997365 0.010821 -0.119582
v 5.997365 0.010821 0.119582
v 5.997365 -0.010821 -0.119582
v 5.997365 -0.010821 0.119582
v 5.997365 0.119581 -0.010821
v 5.997365 0.119581 0.010821
v 5.990524 0.332507 -0.000000
v 6.096037 0.332507 -0.000000
v 5.990524 0.207315 -0.259964
v 6.096037 0.207315 -0.259964
v 5.990524 -0.073990 -0.324170
v 6.096037 -0.073990 -0.324170
v 5.990524 -0.299578 -0.144269
v 6.096037 -0.299578 -0.144269
v 5.990524 -0.299578 0.144269
v 6.096037 -0.299578 0.144269
v 5.990524 -0.073990 0.324170
v 6.096037 -0.073990 0.324170
v 5.990524 0.207315 0.259964
v 6.096037 0.207315 0.259964
v 5.990524 0.332507 -0.000000
v 6.096037 0.332507 -0.000000
v 5.990524 0.207315 -0.259964
v 6.096037 0.207315 -0.259964
v 5.990524 -0.073990 -0.324170
v 6.096037 -0.073990 -0.324170
v 5.990524 -0.299578 -0.144269
v 6.096037 -0.299578 -0.144269
v 5.990524 -0.299578 0.144269
v 6.096037 -0.299578 0.144269
v 5.990524 -0.073990 0.324170
v 6.096037 -0.073990 0.324170
v 5.990524 0.207315 0.259964
v 6.096037 0.207315 0.259964
v -1.559204 0.000000 -0.253446
v 3.974061 0.000000 -0.253446
v -1.559204 -0.179213 -0.179214
v 3.974061 -0.179214 -0.179214
v -1.559204 -0.253446 0.000000
v 3.974061 -0.253446 -0.000000
v -1.559204 -0.179214 0.179214
v 3.974061 -0.179214 0.179213
v -1.559204 -0.000000 0.253446
v 3.974061 -0.000000 0.253446
v -1.559204 0.179214 0.179214
v 3.974061 0.179213 0.179213
v -1.559204 0.253446 0.000000
v 3.974061 0.253446 -0.000000
v -1.559204 0.179214 -0.179213
v 3.974061 0.179214 -0.179213
v 3.985525 0.000000 -0.678460
v 3.985525 -0.226432 -0.541511
v 3.985525 -0.320223 -0.000000
v 3.985525 -0.226432 0.541510
v 3.985525 -0.000000 0.678460
v 3.985525 0.226432 0.541511
v 3.985525 0.320223 0.000000
v 3.985525 0.226432 -0.541510
v 4.093853 0.000000 -0.678460
v 4.093853 -0.226432 -0.541511
v 4.093853 -0.320223 -0.000000
v 4.093853 -0.226432 0.541510
v 4.093853 -0.000000 0.678460
v 4.093853 0.226432 0.541510
v 4.093853 0.320223 0.000000
v 4.093853 0.226432 -0.541510
v 3.974061 0.000000 -0.253446
v 3.974061 -0.179214 -0.179214
v 3.974061 -0.253446 -0.000000
v 3.974061 -0.179214 0.179213
v 3.974061 -0.000000 0.253446
v 3.974061 0.179213 0.179213
v 3.974061 0.253446 -0.000000
v 3.974061 0.179214 -0.179213
v 3.985525 0.000000 -0.678460
v 3.985525 -0.226432 -0.541511
v 3.985525 -0.320223 -0.000000
v 3.985525 -0.226432 0.541510
v 3.985525 -0.000000 0.678460
v 3.985525 0.226432 0.541511
v 3.985525 0.320223 0.000000
v 3.985525 0.226432 -0.541510
v 4.093853 0.000000 -0.678460
v 4.093853 -0.226432 -0.541511
v 4.093853 -0.320223 -0.000000
v 4.093853 -0.226432 0.541510
v 4.093853 -0.000000 0.678460
v 4.093853 0.226432 0.541510
v 4.093853 0.320223 0.000000
v 4.093853 0.226432 -0.541510
v 4.093853 0.000000 -0.253446
v 4.093853 -0.179214 -0.179214
v 4.093853 -0.253446 -0.000000
v 4.093853 -0.179214 0.179213
v 4.093853 -0.000000 0.253446
v 4.093853 0.179213 0.179213
v 4.093853 0.253446 -0.000000
v 4.093853 0.179214 -0.179213
v 3.974061 0.000000 -0.253446
v 3.974061 -0.179214 -0.179214
v 3.974061 -0.253446 -0.000000
v 3.974061 -0.179214 0.179213
v 3.974061 -0.000000 0.253446
v 3.974061 0.179213 0.179213
v 3.974061 0.253446 -0.000000
v 3.974061 0.179214 -0.179213
v 4.093853 0.000000 -0.253446
v 4.093853 -0.179214 -0.179214
v 4.093853 -0.253446 -0.000000
v 4.093853 -0.179214 0.179213
v 4.093853 -0.000000 0.253446
v 4.093853 0.179213 0.179213
v 4.093853 0.253446 -0.000000
v 4.093853 0.179214 -0.179213
v -0.211233 0.000000 -0.204757
v 0.242124 0.000000 -0.213188
v -0.211233 -0.177325 -0.102379
v 0.242124 -0.184626 -0.106594
v -0.211233 -0.177325 0.102379
v 0.242124 -0.184626 0.106594
v -0.211233 0.000000 0.204757
v 0.242124 0.000000 0.213188
v -0.211233 0.177325 0.102379
v 0.242124 0.184626 0.106594
v -0.211233 0.177325 -0.102379
v 0.242124 0.184626 -0.106594
v -2.335557 0.044838 -0.108249
v -1.657191 -0.168563 -0.069821
v -2.335557 -0.108249 -0.044838
v -1.657191 -0.069821 0.168563
v -2.335557 -0.044838 0.108249
v -1.657191 0.168563 0.069821
v -2.335557 0.108249 0.044838
v -1.657191 0.069821 -0.168563
v -1.870527 -0.181743 -0.075346
v -1.870527 -0.181790 0.075234
v -1.870527 -0.075346 0.181743
v -1.870527 0.075235 0.181790
v -1.870527 0.181744 0.075346
v -1.870527 0.181790 -0.075234
v -1.870527 0.075346 -0.181743
v -1.870527 -0.075234 -0.181790
v -1.828148 -0.204790 -0.084900
v -1.828148 -0.204842 0.084775
v -1.828148 -0.084900 0.204790
v -1.828148 0.084775 0.204842
v -1.828148 0.204790 0.084900
v -1.828148 0.204842 -0.084775
v -1.828148 0.084900 -0.204790
v -1.828148 -0.084775 -0.204842
v -2.541737 -0.128688 -0.053351
v -2.541737 -0.128721 0.053272
v -2.541737 -0.053351 0.128688
v -2.541737 0.053272 0.128721
v -2.541737 0.128688 0.053350
v -2.541737 0.128721 -0.053272
v -2.541737 0.053350 -0.128688
v -2.541737 -0.053272 -0.128721
v -2.699163 -0.053979 0.053945
v -2.699163 0.053945 0.053978
v -2.699163 0.053978 -0.053946
v -2.699163 -0.053946 -0.053979
v -3.200066 0.053978 -0.053946
v -3.200066 -0.053946 -0.053979
v -3.200066 -0.053979 0.053945
v -3.200066 0.053945 0.053978
v -1.828148 -0.204790 -0.084900
v -1.828148 -0.204842 0.084775
v -1.828148 -0.084900 0.204790
v -1.828148 0.084775 0.204842
v -1.828148 0.204790 0.084900
v -1.828148 0.204842 -0.084775
v -1.828148 0.084900 -0.204790
v -1.828148 -0.084775 -0.204842
vt 0.9952 0.3724
vt 0.0047 0.3717
vt 0.0046 0.3485
vt 0.9238 0.3487
vt 0.0046 0.3254
vt 0.9237 0.3256
vt 0.0046 0.3022
vt 0.9858 0.3025
vt 0.2190 0.9301
vt 0.0073 0.9914
vt 0.0073 0.8689
vt 0.8213 0.4347
vt 0.8213 0.4687
vt 0.0013 0.4761
vt 0.0013 0.4273
vt 0.2268 0.9181
vt 0.9926 0.9181
vt 0.9927 0.9310
vt 0.2269 0.9310
vt 0.8213 0.3853
vt 0.8213 0.4193
vt 0.0013 0.4267
vt 0.0013 0.3779
vt 0.2268 0.9459
vt 0.9926 0.9459
vt 0.9927 0.9589
vt 0.2269 0.9589
vt 0.9927 0.9171
vt 0.2269 0.9171
vt 0.2268 0.9042
vt 0.9926 0.9042
vt 0.0013 0.5255
vt 0.0013 0.4767
vt 0.8213 0.4841
vt 0.8213 0.5181
vt 0.9927 0.9450
vt 0.2269 0.9450
vt 0.2268 0.9320
vt 0.9926 0.9320
vt 0.0013 0.5749
vt 0.0013 0.5260
vt 0.8213 0.5334
vt 0.8213 0.5675
vt 0.5257 0.8217
vt 0.5363 0.8011
vt 0.5823 0.8000
vt 0.5908 0.8217
vt 0.6106 0.7650
vt 0.6328 0.7720
vt 0.6002 0.7227
vt 0.6189 0.7088
vt 0.5581 0.7077
vt 0.5588 0.6846
vt 0.5163 0.7268
vt 0.4996 0.7105
vt 0.5061 0.7690
vt 0.4831 0.7729
vt 0.9753 0.5048
vt 0.9120 0.5353
vt 0.8486 0.5048
vt 0.8330 0.4363
vt 0.8768 0.3813
vt 0.9471 0.3813
vt 0.9910 0.4363
vt 0.4345 0.6848
vt 0.4733 0.7157
vt 0.4733 0.7653
vt 0.4345 0.7962
vt 0.3861 0.7852
vt 0.3646 0.7405
vt 0.3861 0.6958
vt 0.0009 0.1858
vt 0.9994 0.1858
vt 0.9994 0.2238
vt 0.0009 0.2238
vt 0.9994 0.2602
vt 0.0009 0.2602
vt 0.9994 0.2983
vt 0.0009 0.2983
vt 0.0009 0.0004
vt 0.9994 0.0004
vt 0.9994 0.0368
vt 0.0009 0.0368
vt 0.9994 0.0749
vt 0.0009 0.0749
vt 0.9994 0.1113
vt 0.0009 0.1113
vt 0.9994 0.1494
vt 0.0009 0.1494
vt 0.8086 0.6104
vt 0.8192 0.5757
vt 0.8481 0.5781
vt 0.8315 0.6311
vt 0.7638 0.9599
vt 0.8304 0.9599
vt 0.8304 0.9871
vt 0.7638 0.9871
vt 0.1497 0.9599
vt 0.2878 0.9599
vt 0.2878 0.9871
vt 0.1497 0.9871
vt 0.4209 0.9599
vt 0.5591 0.9599
vt 0.5591 0.9871
vt 0.4209 0.9871
vt 0.6973 0.9599
vt 0.6973 0.9871
vt 0.9927 0.9599
vt 0.9927 0.9871
vt 0.3544 0.9599
vt 0.3544 0.9871
vt 0.3601 0.6726
vt 0.3926 0.6654
vt 0.4526 0.6841
vt 0.3581 0.6841
vt 0.3424 0.5943
vt 0.3246 0.6224
vt 0.2525 0.6100
vt 0.2824 0.5756
vt 0.4104 0.6373
vt 0.4031 0.6048
vt 0.4659 0.6073
vt 0.4825 0.6497
vt 0.3319 0.6549
vt 0.2692 0.6524
vt 0.3749 0.5870
vt 0.3769 0.5755
vt 0.6963 0.6073
vt 0.6336 0.6047
vt 0.6054 0.5868
vt 0.6074 0.5755
vt 0.5729 0.5941
vt 0.5130 0.5755
vt 0.5551 0.6223
vt 0.4831 0.6099
vt 0.5624 0.6548
vt 0.4997 0.6522
vt 0.7129 0.6496
vt 0.6409 0.6372
vt 0.6831 0.6840
vt 0.6231 0.6654
vt 0.5886 0.6840
vt 0.5906 0.6727
vt 0.5277 0.8356
vt 0.5900 0.8356
vt 0.5900 0.8741
vt 0.5277 0.8741
vt 0.4029 0.8356
vt 0.4653 0.8356
vt 0.4653 0.8741
vt 0.4029 0.8741
vt 0.2782 0.8356
vt 0.3406 0.8356
vt 0.3406 0.8741
vt 0.2782 0.8741
vt 0.1535 0.8356
vt 0.2158 0.8356
vt 0.2158 0.8741
vt 0.1535 0.8741
vt 0.0911 0.8741
vt 0.0911 0.8356
vt 0.7165 0.6854
vt 0.7944 0.6854
vt 0.7941 0.7220
vt 0.7162 0.7206
vt 0.7931 0.7586
vt 0.7152 0.7557
vt 0.7914 0.7952
vt 0.7136 0.7909
vt 0.7136 0.5799
vt 0.7914 0.5755
vt 0.7931 0.6121
vt 0.7152 0.6150
vt 0.6844 0.7900
vt 0.7105 0.8352
vt 0.6844 0.8804
vt 0.6322 0.8804
vt 0.6061 0.8352
vt 0.6322 0.7900
vt 0.7941 0.6487
vt 0.7162 0.6502
vt 0.0965 0.7744
vt 0.0965 0.8269
vt 0.0510 0.8532
vt 0.0055 0.8269
vt 0.0055 0.7744
vt 0.0510 0.7481
vt 0.9946 0.6286
vt 0.9847 0.6649
vt 0.8058 0.7691
vt 0.8016 0.7370
vt 0.8296 0.7497
vt 0.8235 0.8368
vt 0.8099 0.8015
vt 0.8394 0.8068
vt 0.8021 0.7059
vt 0.8273 0.6901
vt 0.8049 0.6430
vt 0.8011 0.6744
vt 0.8989 0.8030
vt 0.9849 0.8030
vt 0.9849 0.8889
vt 0.8989 0.8889
vt 0.9817 0.7332
vt 0.9881 0.7664
vt 0.9805 0.6991
vt 0.2438 0.6833
vt 0.2433 0.7097
vt 0.1290 0.7036
vt 0.1278 0.6866
vt 0.2519 0.6832
vt 0.2514 0.7104
vt 0.2419 0.6568
vt 0.2373 0.6300
vt 0.2455 0.6283
vt 0.2500 0.6560
vt 0.2296 0.6038
vt 0.2182 0.5806
vt 0.2246 0.5755
vt 0.2375 0.6009
vt 0.2403 0.7364
vt 0.2483 0.7380
vt 0.2254 0.7852
vt 0.2345 0.7623
vt 0.2420 0.7648
vt 0.2316 0.7893
vt 0.1255 0.6516
vt 0.1265 0.6683
vt 0.0967 0.6597
vt 0.1224 0.6355
vt 0.1165 0.6202
vt 0.1273 0.7200
vt 0.1194 0.7538
vt 0.1235 0.7359
vt 0.0985 0.6992
vt 0.0974 0.7201
vt 0.0074 0.7127
vt 0.0085 0.6947
vt 0.0923 0.6394
vt 0.0038 0.7313
vt 0.7978 0.8070
vt 0.7978 0.8876
vt 0.7172 0.8876
vt 0.7172 0.8070
vt 0.0073 0.6758
vt 0.0038 0.6578
vt 0.3622 0.7475
vt 0.3622 0.7925
vt 0.3303 0.8243
vt 0.2853 0.8243
vt 0.2535 0.7925
vt 0.2535 0.7475
vt 0.2853 0.7156
vt 0.3303 0.7156
vn 0.0000 -0.8660 -0.5000
vn 0.0000 0.0000 1.0000
vn -0.0000 0.8660 -0.5000
vn -0.1727 0.0000 0.9850
vn 0.0008 0.0000 1.0000
vn 0.0090 1.0000 0.0000
vn 0.0008 -1.0000 -0.0000
vn 0.0090 0.0000 1.0000
vn 0.0090 0.0000 -1.0000
vn 0.0008 1.0000 0.0000
vn 0.0090 -1.0000 0.0000
vn 0.0008 0.0000 -1.0000
vn 0.0000 1.0000 0.0000
vn 0.0000 0.6235 -0.7818
vn 0.0000 -0.2225 -0.9749
vn 0.0000 -0.9010 -0.4339
vn 0.0000 -0.9010 0.4339
vn 0.0000 -0.2225 0.9749
vn 0.0000 0.6235 0.7818
vn 1.0000 0.0000 0.0000
vn -1.0000 0.0000 0.0000
vn -0.3395 -0.0355 -0.9399
vn 0.0000 0.0000 -1.0000
vn 0.0000 -0.7071 -0.7071
vn -0.3395 -0.6395 -0.6897
vn 0.0000 -1.0000 0.0000
vn -0.3395 -0.9399 0.0355
vn 0.0000 -0.7071 0.7071
vn -0.3395 -0.6897 0.6395
vn -0.3395 0.0355 0.9399
vn 0.0000 0.7071 0.7071
vn -0.3395 0.6395 0.6897
vn -0.3395 0.9399 -0.0355
vn 0.0000 0.7071 -0.7071
vn -0.3395 0.6897 -0.6395
vn -0.5192 -0.3270 0.7896
vn -0.5192 -0.7896 -0.3270
vn 0.0000 -0.8258 0.5640
vn 0.0000 -0.8258 -0.5640
vn 0.0000 0.8258 -0.5640
vn 0.0000 0.8258 0.5640
vn -0.9934 -0.1147 0.0000
vn -0.9963 -0.0815 -0.0273
vn -0.9992 -0.0279 -0.0280
vn -0.9963 0.0815 0.0273
vn -0.9996 0.0000 0.0282
vn -0.9992 0.0279 0.0280
vn -0.9996 0.0000 -0.0282
vn -0.9963 0.0815 -0.0273
vn -0.9992 0.0279 -0.0280
vn -0.9963 -0.0815 0.0273
vn -0.9992 -0.0279 0.0280
vn -0.9934 0.1147 0.0000
vn -0.6170 0.0000 -0.7870
vn 0.6030 0.0000 -0.7977
vn 0.6030 -0.6908 -0.3988
vn -0.6170 -0.6815 -0.3935
vn 0.6030 -0.6908 0.3988
vn -0.6170 -0.6815 0.3935
vn 0.6030 0.0000 0.7977
vn -0.6170 0.0000 0.7870
vn 0.6030 0.6908 0.3988
vn -0.6170 0.6815 0.3935
vn 0.6030 0.6908 -0.3988
vn -0.6170 0.6815 -0.3935
vn -0.6129 -0.3024 0.7300
vn -0.6129 -0.7300 -0.3024
vn -0.5192 0.7896 0.3270
vn -0.5192 0.3270 -0.7896
vn -0.6129 0.3024 -0.7300
vn -0.6129 0.7300 0.3024
vn -0.3207 0.8752 -0.3622
vn -0.3207 0.3627 -0.8749
vn -0.2396 0.3572 -0.9027
vn -0.1454 0.9028 -0.4047
vn -0.5073 0.7963 -0.3295
vn -0.5073 0.3300 -0.7960
vn -0.3207 0.8749 0.3627
vn -0.3207 0.3622 0.8752
vn -0.5073 0.3295 0.7963
vn -0.5073 0.7960 0.3300
vn -0.3207 -0.3627 0.8749
vn -0.3207 -0.8752 0.3622
vn -0.5073 -0.7963 0.3295
vn -0.5073 -0.3300 0.7960
vn -0.3207 -0.3622 -0.8752
vn -0.5073 -0.3295 -0.7963
vn -0.3207 -0.8749 -0.3627
vn -0.5073 -0.7960 -0.3300
vn -0.2396 0.3567 0.9030
vn -0.1454 0.9025 0.4053
vn -0.1405 0.0710 0.9875
vn -0.2396 -0.3572 0.9027
vn -0.1454 -0.9028 0.4047
vn -0.2396 -0.3567 -0.9030
vn -0.1454 -0.9025 -0.4053
vn -0.1405 0.0716 -0.9875
vn -0.1405 -0.0710 -0.9875
vn -0.6057 -0.5407 -0.5837
vn -0.6057 0.5411 -0.5834
vn -0.1405 -0.0716 0.9875
vn -0.6057 -0.5411 0.5834
vn -0.6057 0.5407 0.5837
usemtl Material
s off
f 1/1/1 2/2/1 4/3/1 3/4/1
f 3/4/2 4/3/2 6/5/2 5/6/2
f 5/6/3 6/5/3 2/7/3 1/8/3
f 1/9/4 3/10/4 5/11/4
f 11/12/5 22/13/5 8/14/5 7/15/5
f 21/16/6 10/17/6 8/18/6 22/19/6
f 19/20/7 20/21/7 14/22/7 13/23/7
f 18/24/8 16/25/8 14/26/8 20/27/8
f 15/28/9 17/29/9 19/30/9 13/31/9
f 15/32/10 16/33/10 18/34/10 17/35/10
f 9/36/11 12/37/11 11/38/11 7/39/11
f 9/40/12 10/41/12 21/42/12 12/43/12
s 1
f 23/44/13 24/45/13 26/46/14 25/47/14
f 25/47/14 26/46/14 28/48/15 27/49/15
f 27/49/15 28/48/15 30/50/16 29/51/16
f 29/51/16 30/50/16 32/52/17 31/53/17
f 31/53/17 32/52/17 34/54/18 33/55/18
f 33/55/18 34/54/18 36/56/19 35/57/19
f 35/57/19 36/56/19 24/45/13 23/44/13
f 40/58/20 38/59/20 50/60/20 48/61/20 46/62/20 44/63/20 42/64/20
f 37/65/21 39/66/21 41/67/21 43/68/21 45/69/21 47/70/21 49/71/21
f 51/72/22 52/73/23 54/74/24 53/75/25
f 53/75/25 54/74/24 56/76/26 55/77/27
f 55/77/27 56/76/26 58/78/28 57/79/29
f 57/80/29 58/81/28 60/82/2 59/83/30
f 59/83/30 60/82/2 62/84/31 61/85/32
f 61/85/32 62/84/31 64/86/13 63/87/33
f 63/87/33 64/86/13 66/88/34 65/89/35
f 65/89/35 66/88/34 52/73/23 51/72/22
f 55/90/27 57/91/29 146/92/36 144/93/37
f 71/94/2 70/95/38 78/96/38 79/97/2
f 69/98/26 68/99/39 76/100/39 77/101/26
f 74/102/40 73/103/13 81/104/13 82/105/40
f 72/106/41 71/94/2 79/97/2 80/107/41
f 70/95/38 69/108/26 77/109/26 78/96/38
f 68/99/39 67/110/23 75/111/23 76/100/39
f 67/110/23 74/102/40 82/105/40 75/111/23
f 73/103/13 72/106/41 80/107/41 81/104/13
f 85/112/42 84/113/43 92/114/44 93/115/42
f 88/116/45 87/117/46 95/118/46 96/119/47
f 83/120/48 90/121/49 98/122/50 91/123/48
f 84/113/43 83/120/48 91/123/48 92/114/44
f 86/124/51 85/112/42 93/115/42 94/125/52
f 89/126/53 88/116/45 96/119/47 97/127/53
f 87/117/46 86/124/51 94/125/52 95/118/46
f 90/121/49 89/126/53 97/127/53 98/122/50
f 100/128/20 108/129/20 109/130/20 101/131/20
f 101/131/20 109/130/20 110/132/20 102/133/20
f 102/133/20 110/132/20 111/134/20 103/135/20
f 103/135/20 111/134/20 112/136/20 104/137/20
f 99/138/20 107/139/20 108/129/20 100/128/20
f 106/140/20 114/141/20 107/139/20 99/138/20
f 105/142/20 113/143/20 114/141/20 106/140/20
f 104/137/20 112/136/20 113/143/20 105/142/20
f 116/144/31 117/145/13 125/146/13 124/147/31
f 122/148/28 115/149/2 123/150/2 130/151/28
f 120/152/24 121/153/26 129/154/26 128/155/24
f 118/156/34 119/157/23 127/158/23 126/159/34
f 120/152/24 128/155/24 127/158/23 119/157/23
f 118/156/34 126/159/34 125/160/13 117/161/13
f 116/144/31 124/147/31 123/150/2 115/149/2
f 122/148/28 130/151/28 129/154/26 121/153/26
f 131/162/54 132/163/55 134/164/56 133/165/57
f 133/165/57 134/164/56 136/166/58 135/167/59
f 135/167/59 136/166/58 138/168/60 137/169/61
f 137/170/61 138/171/60 140/172/62 139/173/63
f 134/174/56 132/175/55 142/176/64 140/177/62 138/178/60 136/179/58
f 139/173/63 140/172/62 142/180/64 141/181/65
f 141/181/65 142/180/64 132/163/55 131/162/54
f 131/182/54 133/183/57 135/184/59 137/185/61 139/186/63 141/187/65
f 144/93/37 146/92/36 147/188/66 145/189/67
f 61/190/32 63/191/33 148/192/68
f 57/193/29 59/194/30 146/195/36
f 63/191/33 65/196/35 150/197/69 148/192/68
f 53/198/25 55/90/27 144/93/37
f 59/194/30 61/190/32 148/192/68 146/195/36
f 65/196/35 51/199/22 150/197/69
f 51/199/22 53/198/25 144/93/37 150/197/69
f 143/200/70 145/201/67 147/202/66 149/203/71
f 146/195/36 148/192/68 149/204/71 147/205/66
f 150/197/69 144/93/37 145/189/67 143/206/70
f 148/192/68 150/197/69 143/206/70 149/204/71
f 156/207/72 157/208/73 173/209/74 172/210/75
f 157/208/73 156/207/72 164/211/76 165/212/77
f 155/213/78 154/214/79 162/215/80 163/216/81
f 153/217/82 152/218/83 160/219/84 161/220/85
f 158/221/86 157/208/73 165/212/77 166/222/87
f 156/207/72 155/213/78 163/216/81 164/211/76
f 154/214/79 153/217/82 161/220/85 162/215/80
f 152/223/83 151/224/88 159/225/89 160/226/84
f 151/224/88 158/221/86 166/222/87 159/225/89
f 170/227/90 171/228/91 176/229/92
f 154/214/79 155/213/78 171/228/91 170/227/90
f 152/218/83 153/217/82 169/230/93 168/231/94
f 157/208/73 158/221/86 174/232/95 173/209/74
f 155/213/78 156/207/72 172/210/75 171/228/91
f 153/217/82 154/214/79 170/227/90 169/230/93
f 151/224/88 152/223/83 168/233/94 167/234/96
f 158/221/86 151/224/88 167/234/96 174/232/95
f 177/235/97 178/236/98 180/237/99 179/238/100
f 168/231/94 169/230/93 175/239/101
f 173/209/74 174/232/95 178/236/98 177/235/97
f 168/233/94 181/240/102 180/237/99 167/234/96
f 169/230/93 170/227/90 176/229/92 175/239/101
f 179/238/100 172/210/75 177/235/97
f 174/232/95 167/234/96 178/236/98
f 172/210/75 173/209/74 177/235/97
f 180/241/99 181/242/102 182/243/103 179/244/100
f 182/245/103 176/229/92 171/228/91
f 175/239/101 176/229/92 182/245/103 181/246/102
f 172/210/75 179/238/100 182/245/103 171/228/91
f 167/234/96 180/237/99 178/236/98
f 175/239/101 181/246/102 168/231/94
f 183/247/20 190/248/20 189/249/20 188/250/20 187/251/20 186/252/20 185/253/20 184/254/20
